<?xml version="1.0" encoding="UTF-8" standalone="no"?><svg xmlns="http://www.w3.org/2000/svg" xmlns:xlink="http://www.w3.org/1999/xlink" contentStyleType="text/css" height="676px" preserveAspectRatio="none" style="width:1154px;height:676px;background:#FFFFFF;" version="1.1" viewBox="0 0 1154 676" width="1154px" zoomAndPan="magnify"><defs/><g><!--MD5=[8768499ff05dfc1a2399a43ea4b6c743]
cluster Whaaale--><g id="cluster_Whaaale"><path d="M86.5,6 L156.5,6 A3.75,3.75 0 0 1 159,8.5 L166,28.2969 L1144.5,28.2969 A2.5,2.5 0 0 1 1147,30.7969 L1147,425.5 A2.5,2.5 0 0 1 1144.5,428 L86.5,428 A2.5,2.5 0 0 1 84,425.5 L84,8.5 A2.5,2.5 0 0 1 86.5,6 " fill="none" style="stroke:#000000;stroke-width:1.5;"/><line style="stroke:#000000;stroke-width:1.5;" x1="84" x2="166" y1="28.2969" y2="28.2969"/><text fill="#000000" font-family="sans-serif" font-size="14" font-weight="bold" lengthAdjust="spacing" textLength="69" x="88" y="20.9951">Whaaale</text></g><g id="elem_UCopen"><ellipse cx="167.8807" cy="196.9761" fill="#F1F1F1" rx="67.8807" ry="15.9761" style="stroke:#181818;stroke-width:0.5;"/><text fill="#000000" font-family="sans-serif" font-size="14" lengthAdjust="spacing" textLength="87" x="121.3807" y="200.7237">Open image</text></g><g id="elem_UCsingle_band"><ellipse cx="471.6693" cy="62.1339" fill="#F1F1F1" rx="93.6693" ry="21.1339" style="stroke:#181818;stroke-width:0.5;"/><text fill="#000000" font-family="sans-serif" font-size="14" lengthAdjust="spacing" textLength="150" x="396.6693" y="64.9805">Display a single band</text></g><g id="elem_UCRGB"><ellipse cx="471.6957" cy="143.8391" fill="#F1F1F1" rx="114.6957" ry="25.3391" style="stroke:#181818;stroke-width:0.5;"/><text fill="#000000" font-family="sans-serif" font-size="14" lengthAdjust="spacing" textLength="196" x="373.6957" y="146.6858">Display fake-colored image</text></g><g id="elem_UCsimilar"><ellipse cx="471.5567" cy="391.0113" fill="#F1F1F1" rx="90.5567" ry="20.5113" style="stroke:#181818;stroke-width:0.5;"/><text fill="#000000" font-family="sans-serif" font-size="14" lengthAdjust="spacing" textLength="143" x="400.0567" y="393.858">Select similar pixels</text></g><g id="elem_UCcurve_px"><ellipse cx="471.6608" cy="312.0322" fill="#F1F1F1" rx="103.1608" ry="23.0322" style="stroke:#181818;stroke-width:0.5;"/><text fill="#000000" font-family="sans-serif" font-size="14" lengthAdjust="spacing" textLength="171" x="386.1608" y="314.8788">Display curve for a pixel</text></g><g id="elem_UCcurve_area"><ellipse cx="471.4443" cy="229.1889" fill="#F1F1F1" rx="111.4443" ry="24.6889" style="stroke:#181818;stroke-width:0.5;"/><text fill="#000000" font-family="sans-serif" font-size="14" lengthAdjust="spacing" textLength="189" x="376.9443" y="232.0355">Display curves for a region</text></g><g id="elem_UCcurve"><ellipse cx="780.3536" cy="311.8707" fill="#F1F1F1" rx="77.3536" ry="17.8707" style="stroke:#181818;stroke-width:0.5;"/><text fill="#000000" font-family="sans-serif" font-size="14" lengthAdjust="spacing" textLength="112" x="721.6333" y="315.5454">Display curve(s)</text></g><g id="elem_UCexport"><ellipse cx="1055.1676" cy="370.1335" fill="#F1F1F1" rx="76.1676" ry="17.6335" style="stroke:#181818;stroke-width:0.5;"/><text fill="#000000" font-family="sans-serif" font-size="14" lengthAdjust="spacing" textLength="109" x="997.6676" y="373.8811">Export curve(s)</text></g><!--MD5=[7d46d6cd919e02e6168a09ad91eae8b4]
entity u--><g id="elem_u"><ellipse cx="21.5" cy="426.5" fill="#F1F1F1" rx="8" ry="8" style="stroke:#181818;stroke-width:0.5;"/><path d="M21.5,434.5 L21.5,461.5 M8.5,442.5 L34.5,442.5 M21.5,461.5 L8.5,476.5 M21.5,461.5 L34.5,476.5 " fill="none" style="stroke:#181818;stroke-width:0.5;"/><text fill="#000000" font-family="sans-serif" font-size="14" lengthAdjust="spacing" textLength="31" x="6" y="490.9951">User</text></g><!--MD5=[47e3d946923dddff2329dd681465adac]
link u to UCopen--><g id="link_u_UCopen"><path d="M26.3345,417.883 C31.318,382.16 42.4917,328.362 67,288 C85.3511,257.778 116.726,231.617 139.447,215.2 " fill="none" id="u-to-UCopen" style="stroke:#181818;stroke-width:1.0;"/><polygon fill="#181818" points="143.583,212.25,133.9335,214.2217,139.513,215.1543,138.5804,220.7338,143.583,212.25" style="stroke:#181818;stroke-width:1.0;"/></g><!--MD5=[7637c25a79f4220e2758db66407ee73d]
link u to UCsingle_band--><g id="link_u_UCsingle_band"><path d="M37.1282,432.171 C46.6339,418.555 60.183,402.211 76,392 C173.299,329.187 250.908,409.307 327,322 C392.127,247.275 294.106,177.614 357,101 C365.949,90.099 378.1,82.237 391.135,76.567 " fill="none" id="u-to-UCsingle_band" style="stroke:#181818;stroke-width:1.0;"/><polygon fill="#181818" points="395.972,74.576,386.127,74.3017,391.3482,76.4787,389.1712,81.6999,395.972,74.576" style="stroke:#181818;stroke-width:1.0;"/></g><!--MD5=[b2eb88fbbad0d8ba14c06323bd1069cf]
link u to UCRGB--><g id="link_u_UCRGB"><path d="M37.1483,449.192 C45.7395,445.34 56.8645,440.59 67,437 C123.625,416.943 286.887,407.717 327,363 C379.986,303.932 306.568,248.262 357,187 C364.734,177.605 374.755,170.261 385.637,164.52 " fill="none" id="u-to-UCRGB" style="stroke:#181818;stroke-width:1.0;"/><polygon fill="#181818" points="390.349,162.156,380.5109,162.6158,385.8797,164.3978,384.0977,169.7666,390.349,162.156" style="stroke:#181818;stroke-width:1.0;"/></g><!--MD5=[7571ec5e70005e0602cf02cb16f0d4dd]
link u to UCsimilar--><g id="link_u_UCsimilar"><path d="M29.6357,494.404 C35.7398,515.566 46.8822,540.095 67,553 C164.265,615.3905 221.627,600.429 327,553 C389.719,524.77 436.116,454.078 457.464,416.085 " fill="none" id="u-to-UCsimilar" style="stroke:#181818;stroke-width:1.0;"/><polygon fill="#181818" points="459.943,411.619,452.0785,417.5478,457.517,415.991,459.0737,421.4294,459.943,411.619" style="stroke:#181818;stroke-width:1.0;"/></g><!--MD5=[217da213b9c211ddfc6068fd218258b4]
link u to UCexport--><g id="link_u_UCexport"><path d="M30.1221,494.08 C44.8518,555.346 83.4378,669 167,669 C167,669 167,669 781.5,669 C931.021,669 1020.31,462.222 1046.14,392.581 " fill="none" id="u-to-UCexport" style="stroke:#181818;stroke-width:1.0;"/><polygon fill="#181818" points="1047.89,387.808,1041.0318,394.8766,1046.1658,392.5013,1048.5411,397.6353,1047.89,387.808" style="stroke:#181818;stroke-width:1.0;"/></g><!--MD5=[0a52e76e680f48f3263a1a8380252edf]
link u to UCcurve_px--><g id="link_u_UCcurve_px"><path d="M37.2505,467.297 C45.5151,472.91 56.2904,479.101 67,482 C178.54,512.197 236.508,553.862 327,482 C373.096,445.394 317.907,397.007 357,353 C365.984,342.886 377.657,335.266 390.091,329.525 " fill="none" id="u-to-UCcurve_px" style="stroke:#181818;stroke-width:1.0;"/><polygon fill="#181818" points="394.703,327.493,384.8542,327.4607,390.1273,329.5087,388.0793,334.7818,394.703,327.493" style="stroke:#181818;stroke-width:1.0;"/></g><!--MD5=[bc04bb91e13c47be0f2efeb58cd7f16c]
link u to UCcurve_area--><g id="link_u_UCcurve_area"><path d="M37.3149,459.012 C86.0929,467.992 243.323,489.341 327,411 C373.136,367.806 315.775,319.904 357,272 C365.433,262.201 376.344,254.628 388.06,248.779 " fill="none" id="u-to-UCcurve_area" style="stroke:#181818;stroke-width:1.0;"/><polygon fill="#181818" points="392.764,246.539,382.9185,246.7964,388.2496,248.6884,386.3575,254.0195,392.764,246.539" style="stroke:#181818;stroke-width:1.0;"/></g><!--MD5=[2aa707a975954de5eb823b10e5479157]
link UCopen to UCsingle_band--><g id="link_UCopen_UCsingle_band"><path d="M195.604,182.352 C215.007,171.764 241.995,157.231 266,145 C306.028,124.605 315.461,118.108 357,101 C374.522,93.784 393.92,86.772 411.648,80.731 " fill="none" id="UCopen-to-UCsingle_band" style="stroke:#181818;stroke-width:1.0;stroke-dasharray:7.0,7.0;"/><polygon fill="#181818" points="416.602,79.054,406.7947,78.1505,411.8659,80.657,409.3594,85.7282,416.602,79.054" style="stroke:#181818;stroke-width:1.0;"/><text fill="#000000" font-family="sans-serif" font-size="13" lengthAdjust="spacing" textLength="59" x="267" y="111.0669">precedes</text></g><!--MD5=[3dc560d01b7b224bf151023ae56d836e]
link UCopen to UCRGB--><g id="link_UCopen_UCRGB"><path d="M222.902,187.525 C265.315,180.069 325.464,169.496 375.856,160.637 " fill="none" id="UCopen-to-UCRGB" style="stroke:#181818;stroke-width:1.0;stroke-dasharray:7.0,7.0;"/><polygon fill="#181818" points="381.012,159.731,371.4553,157.3498,376.0875,160.5967,372.8405,165.2289,381.012,159.731" style="stroke:#181818;stroke-width:1.0;"/><text fill="#000000" font-family="sans-serif" font-size="13" lengthAdjust="spacing" textLength="59" x="267" y="166.0669">precedes</text></g><!--MD5=[7e1fd7d812d9b6e7958b7d1d46f2476f]
link UCopen to UCsimilar--><g id="link_UCopen_UCsimilar"><path d="M183.479,212.772 C213.068,244.08 283.869,314.376 357,353 C372.57,361.223 390.267,368.166 406.978,373.775 " fill="none" id="UCopen-to-UCsimilar" style="stroke:#181818;stroke-width:1.0;stroke-dasharray:7.0,7.0;"/><polygon fill="#181818" points="412.129,375.473,404.8342,368.8559,407.3805,373.9073,402.3291,376.4536,412.129,375.473" style="stroke:#181818;stroke-width:1.0;"/><text fill="#000000" font-family="sans-serif" font-size="13" lengthAdjust="spacing" textLength="59" x="267" y="288.0669">precedes</text></g><!--MD5=[c19a1c138dcf0a84f63213048f155b0c]
link UCopen to UCcurve_px--><g id="link_UCopen_UCcurve_px"><path d="M203.067,210.843 C221.643,218.355 245.055,227.762 266,236 C306.326,251.861 316.398,255.86 357,271 C374.495,277.524 393.565,284.474 410.992,290.763 " fill="none" id="UCopen-to-UCcurve_px" style="stroke:#181818;stroke-width:1.0;stroke-dasharray:7.0,7.0;"/><polygon fill="#181818" points="415.861,292.519,408.7513,285.7034,411.1574,290.823,406.0378,293.2291,415.861,292.519" style="stroke:#181818;stroke-width:1.0;"/><text fill="#000000" font-family="sans-serif" font-size="13" lengthAdjust="spacing" textLength="59" x="267" y="232.0669">precedes</text></g><!--MD5=[fd2daf7530a7ed7476c68b71c0aa811b]
link UCopen to UCcurve_area--><g id="link_UCopen_UCcurve_area"><path d="M232.478,202.094 C261.343,204.546 295.922,207.675 327,211 C340.897,212.487 355.535,214.178 369.935,215.915 " fill="none" id="UCopen-to-UCcurve_area" style="stroke:#181818;stroke-width:1.0;stroke-dasharray:7.0,7.0;"/><polygon fill="#181818" points="375.228,216.556,366.7759,211.5002,370.2645,215.9532,365.8114,219.4418,375.228,216.556" style="stroke:#181818;stroke-width:1.0;"/><text fill="#000000" font-family="sans-serif" font-size="13" lengthAdjust="spacing" textLength="59" x="267" y="201.0669">precedes</text></g><!--MD5=[e3e269027e622b52a4b8d11cd86a5803]
link UCcurve_px to UCcurve--><g id="link_UCcurve_px_UCcurve"><path d="M574.727,312 C614.79,312 660.119,312 697.925,312 " fill="none" id="UCcurve_px-to-UCcurve" style="stroke:#181818;stroke-width:1.0;stroke-dasharray:7.0,7.0;"/><polygon fill="#181818" points="702.971,312,693.971,308,697.971,312,693.971,316,702.971,312" style="stroke:#181818;stroke-width:1.0;"/><text fill="#000000" font-family="sans-serif" font-size="13" lengthAdjust="spacing" textLength="55" x="617" y="308.0669">expands</text></g><!--MD5=[0e5f0d9cfb370ee9750cb50a50d061d6]
link UCcurve_area to UCcurve--><g id="link_UCcurve_area_UCcurve"><path d="M542.547,247.938 C597.75,262.862 673.642,283.381 724.523,297.137 " fill="none" id="UCcurve_area-to-UCcurve" style="stroke:#181818;stroke-width:1.0;stroke-dasharray:7.0,7.0;"/><polygon fill="#181818" points="729.367,298.446,721.7219,292.2369,724.5401,297.1418,719.6352,299.9599,729.367,298.446" style="stroke:#181818;stroke-width:1.0;"/><text fill="#000000" font-family="sans-serif" font-size="13" lengthAdjust="spacing" textLength="55" x="617" y="264.0669">expands</text></g><!--MD5=[1eecf94f907ddf8272eb5b69771a6117]
link UCcurve to UCexport--><g id="link_UCcurve_UCexport"><path d="M838.293,324.088 C883.743,333.762 947.325,347.295 993.68,357.161 " fill="none" id="UCcurve-to-UCexport" style="stroke:#181818;stroke-width:1.0;stroke-dasharray:7.0,7.0;"/><polygon fill="#181818" points="998.677,358.225,990.7057,352.4407,993.7863,357.1852,989.0419,360.2658,998.677,358.225" style="stroke:#181818;stroke-width:1.0;"/><text fill="#000000" font-family="sans-serif" font-size="13" lengthAdjust="spacing" textLength="59" x="889" y="331.0669">precedes</text></g><!--MD5=[69d87b2085e1df78febd95bb011ae759]
@startuml
left to right direction

actor User as u

package Whaaale {
   usecase "Open image" as UCopen
   usecase "Display a single band" as UCsingle_band
   usecase "Display fake-colored image" as UCRGB
   usecase "Select similar pixels" as UCsimilar
   usecase "Display curve for a pixel" as UCcurve_px
   usecase "Display curves for a region" as UCcurve_area
   usecase "Display curve(s)" as UCcurve
   usecase "Export curve(s)" as UCexport
}

u - -> UCopen
u - -> UCsingle_band
u - -> UCRGB
u - -> UCsimilar
u - -> UCexport
u - -> UCcurve_px
u - -> UCcurve_area
UCopen .-> UCsingle_band : precedes
UCopen .-> UCRGB : precedes
UCopen .-> UCsimilar : precedes
UCopen .-> UCcurve_px : precedes
UCopen .-> UCcurve_area : precedes
UCcurve_px .-> UCcurve : expands
UCcurve_area .-> UCcurve : expands
UCcurve .-> UCexport : precedes
@enduml

PlantUML version 1.2022.13beta7(Unknown compile time)
(GPL source distribution)
Java Runtime: Java(TM) SE Runtime Environment
JVM: Java HotSpot(TM) 64-Bit Server VM
Default Encoding: UTF-8
Language: en
Country: US
--></g></svg>